<svg width="650" height="193" viewBox="0 0 650 193" fill="none" xmlns="http://www.w3.org/2000/svg">
<path d="M574.111 0H76.2496C40.374 0 16.1727 36.6647 30.2739 69.6528L70.0278 162.653C77.8962 181.06 95.985 193 116.003 193H534.839C554.937 193 573.082 180.966 580.9 162.451L620.172 69.4508C634.092 36.488 609.892 0 574.111 0Z" fill="#71A8FF"/>
<path d="M541.642 12H107.733C71.603 12 47.4 49.1436 61.9935 82.1956L92.4591 151.196C100.458 169.312 118.395 181 138.199 181H511.545C531.43 181 549.425 169.217 557.375 150.99L587.472 81.9901C601.878 48.9616 577.675 12 541.642 12Z" fill="#0062FF"/>
<path d="M184.399 141.155H174.861L161 127.248V112.448H185.67V120.741H205.127V106.707H174.988L161.127 92.8V65.7517L174.988 51.8448H184.399V41H206.017V51.8448H214.918L228.78 65.7517V80.6793H204.109V72.2586H185.797V86.2931H215.936L229.797 100.2V127.248L215.936 141.155H206.017V152H184.399V141.155Z" fill="white"/>
<path d="M246.281 141.155V51.8448H271.714V141.155H246.281Z" fill="white"/>
<path d="M317.03 141.155H292.105V51.8448H317.03V61.4138L344.625 89.1L372.22 61.4138V51.8448H397.144V141.155H372.22V111.81C372.22 106.579 372.729 98.4138 373.364 92.4172L356.578 109.259V125.59H332.671V109.259L315.885 92.4172C316.521 98.4138 317.03 106.579 317.03 111.81V141.155Z" fill="white"/>
<path d="M442.966 141.155H417.533V51.8448H475.139L489 65.7517V98.7966L472.087 115.766H442.966V141.155ZM442.966 94.0759H460.769L463.567 91.269V74.8103H442.966V94.0759Z" fill="white"/>
</svg>
